<svg width="1940" height="1081" xmlns="http://www.w3.org/2000/svg" xmlns:xlink="http://www.w3.org/1999/xlink" xml:space="preserve" overflow="hidden"><g transform="translate(-1582 -920)"><path d="M10.3125-8.42832e-06 10.3128 390.009-10.3122 390.009-10.3125 8.42832e-06ZM30.9378 379.696 0.000360892 441.571-30.9372 379.696Z" fill="#FF0000" transform="matrix(1 0 0 -1 2027.5 1446.07)"/><path d="M10.3125-8.42832e-06 10.3128 390.009-10.3122 390.009-10.3125 8.42832e-06ZM30.9378 379.696 0.000360892 441.571-30.9372 379.696Z" fill="#0000FF" transform="matrix(-0.5 0.866025 0.866025 0.5 2027.48 1445.1)"/><path d="M2032.64 1454.03 1694.88 1649.04 1684.57 1631.18 2022.32 1436.17ZM1714.12 1661.74 1645.07 1665.89 1683.18 1608.16Z" fill="#00AA00"/><path d="M3105.18 1415.39 3060.12 1078.98 3080.57 1076.24 3125.63 1412.65ZM3041.05 1091.93 3063.5 1026.5 3102.38 1083.72Z" fill="#FF0000"/><path d="M3121.6 1407.18 3422.12 1627.49 3409.93 1644.12 3109.4 1423.82ZM3426 1604.76 3457.61 1666.29 3389.42 1654.66Z" fill="#0000FF"/><path d="M0.585847-10.2958 308.805 7.2422 307.633 27.8339-0.585847 10.2958ZM299.681-13.9353 359.698 20.4673 296.166 47.8397Z" fill="#00AA00" transform="matrix(-1 0 0 1 3115.2 1414.5)"/><path d="M10.3125-8.42832e-06 10.3125 20.625-10.3125 20.625-10.3125 8.42832e-06ZM10.3125 41.25 10.3126 61.875-10.3124 61.875-10.3125 41.25ZM10.3126 82.5 10.3126 103.125-10.3124 103.125-10.3124 82.5ZM10.3126 123.75 10.3126 144.375-10.3124 144.375-10.3124 123.75ZM10.3126 165 10.3127 185.625-10.3123 185.625-10.3124 165ZM10.3127 206.25 10.3127 226.875-10.3123 226.875-10.3123 206.25ZM10.3127 247.5 10.3127 268.125-10.3123 268.125-10.3123 247.5ZM10.3127 288.75 10.3128 309.375-10.3122 309.375-10.3123 288.75ZM10.3128 330 10.3128 350.625-10.3122 350.625-10.3122 330ZM10.3128 371.25 10.3128 390.009-10.3122 390.009-10.3122 371.25ZM30.9378 379.696 0.000360892 441.571-30.9372 379.696Z" fill="#0000FF" transform="matrix(-0.71934 0.694658 0.694658 0.71934 3122.47 1420.88)"/><path d="M3124.26 1430.79 3103.95 1434.37 3100.37 1414.06 3120.68 1410.48ZM3083.64 1437.95 3063.32 1441.53 3059.74 1421.22 3080.05 1417.64ZM3043.01 1445.11 3022.7 1448.7 3019.12 1428.38 3039.43 1424.8ZM3002.39 1452.28 2982.08 1455.86 2978.5 1435.55 2998.81 1431.97ZM2961.77 1459.44 2941.45 1463.02 2937.87 1442.71 2958.18 1439.13ZM2921.14 1466.6 2900.83 1470.19 2897.25 1449.87 2917.56 1446.29ZM2880.52 1473.77 2860.21 1477.35 2856.63 1457.04 2876.94 1453.45ZM2839.9 1480.93 2819.58 1484.51 2816 1464.2 2836.31 1460.62ZM2799.27 1488.09 2778.96 1491.67 2775.38 1471.36 2795.69 1467.78ZM2758.65 1495.26 2740.18 1498.51 2736.59 1478.2 2755.07 1474.94ZM2753.91 1517.03 2687.61 1497.31 2743.17 1456.1Z" fill="#00AA00"/><path d="M10.3125-8.42832e-06 10.3125 20.625-10.3125 20.625-10.3125 8.42832e-06ZM10.3125 41.25 10.3126 61.875-10.3124 61.875-10.3125 41.25ZM10.3126 82.5 10.3126 103.125-10.3124 103.125-10.3124 82.5ZM10.3126 123.75 10.3126 144.375-10.3124 144.375-10.3124 123.75ZM10.3126 165 10.3127 185.625-10.3123 185.625-10.3124 165ZM10.3127 206.25 10.3127 226.875-10.3123 226.875-10.3123 206.25ZM10.3127 247.5 10.3127 268.125-10.3123 268.125-10.3123 247.5ZM10.3127 288.75 10.3128 309.375-10.3122 309.375-10.3123 288.75ZM10.3128 330 10.3128 350.625-10.3122 350.625-10.3122 330ZM10.3128 371.25 10.3128 390.009-10.3122 390.009-10.3122 371.25ZM30.9378 379.696 0.000360892 441.571-30.9372 379.696Z" fill="#FF0000" transform="matrix(0.992546 0.121869 0.121869 -0.992546 3122.47 1420.63)"/><text font-family="CMU Bright,CMU Bright_MSFontService,sans-serif" font-weight="700" font-size="55" transform="matrix(1 0 0 1 1646.5 1949)">Ideally equally spaced phasors</text><text font-family="CMU Bright,CMU Bright_MSFontService,sans-serif" font-weight="700" font-size="55" transform="matrix(1 0 0 1 2797.02 1916)">LV network secondary case</text></g></svg>